<svg width="24.000000" height="24.000000" viewBox="0 0 24 24" fill="none" xmlns="http://www.w3.org/2000/svg" xmlns:xlink="http://www.w3.org/1999/xlink">
	<desc>
			Created with Pixso.
	</desc>
	<defs>
		<clipPath id="clip22_213">
			<rect id="airplay" width="24.000000" height="24.000000" fill="white" fill-opacity="0"/>
		</clipPath>
	</defs>
	<rect id="airplay" width="24.000000" height="24.000000" fill="#FFFFFF" fill-opacity="0"/>
	<g clip-path="url(#clip22_213)">
		<path id="矢量 23" d="M6 22L18 22L12 16L6 22Z" fill="#27EE12" fill-opacity="1.000000" fill-rule="evenodd"/>
		<path id="矢量 24" d="M21 3L3 3C1.9 3 1 3.9 1 5L1 17C1 18.1 1.9 19 3 19L7 19L7 17L3 17L3 5L21 5L21 17L17 17L17 19L21 19C22.1 19 23 18.1 23 17L23 5C23 3.9 22.1 3 21 3Z" fill="#27EE12" fill-opacity="1.000000" fill-rule="evenodd"/>
	</g>
</svg>
