<svg width="24.000000" height="24.000000" viewBox="0 0 24 24" fill="none" xmlns="http://www.w3.org/2000/svg" xmlns:xlink="http://www.w3.org/1999/xlink">
	<desc>
			Created with Pixso.
	</desc>
	<defs>
		<clipPath id="clip22_197">
			<rect id="virus-fill" width="24.000000" height="24.000000" fill="white" fill-opacity="0"/>
		</clipPath>
	</defs>
	<rect id="virus-fill" width="24.000000" height="24.000000" fill="#FFFFFF" fill-opacity="0"/>
	<g clip-path="url(#clip22_197)">
		<path id="矢量 50" d="M13.71 1.94L17.45 3.38L16.73 5.24L15.8 4.88L15.05 6.83C15.83 7.29 16.49 7.92 16.99 8.67L18.9 7.83L18.49 6.91L20.32 6.1L21.94 9.76L20.12 10.57L19.71 9.66L17.81 10.5C17.93 10.98 18 11.48 18 12C18 12.4 17.95 12.8 17.88 13.18L19.82 13.93L20.18 13L22.05 13.71L20.61 17.45L18.75 16.73L19.11 15.8L17.16 15.05C16.7 15.83 16.07 16.49 15.32 16.99L16.16 18.9L17.08 18.49L17.89 20.32L14.24 21.94L13.42 20.12L14.34 19.71L13.49 17.81C13.01 17.93 12.51 18 12 18C11.59 18 11.19 17.95 10.81 17.88L10.06 19.82L11 20.18L10.28 22.05L6.54 20.61L7.26 18.75L8.19 19.11L8.94 17.16C8.16 16.7 7.5 16.07 7 15.32L5.09 16.16L5.5 17.08L3.67 17.89L2.05 14.24L3.87 13.42L4.28 14.34L6.18 13.49C6.06 13.01 6 12.51 6 12C6 11.59 6.04 11.19 6.11 10.81L4.17 10.06L3.81 11L1.94 10.28L3.38 6.55L5.24 7.26L4.88 8.2L6.83 8.94C7.29 8.16 7.92 7.5 8.67 7L7.83 5.09L6.91 5.5L6.1 3.67L9.76 2.05L10.57 3.87L9.66 4.28L10.5 6.18C10.98 6.06 11.48 6 12 6C12.4 6 12.8 6.04 13.18 6.11L13.93 4.17L13 3.81L13.71 1.94L13.71 1.94ZM10.13 13.23C9.85 13.71 10.02 14.32 10.5 14.59C10.97 14.87 11.59 14.71 11.86 14.23C12.14 13.75 11.97 13.14 11.5 12.86C11.02 12.59 10.41 12.75 10.13 13.23ZM14 11C13.44 11 13 11.44 13 12C13 12.55 13.44 13 14 13C14.55 13 15 12.55 15 12C15 11.44 14.55 11 14 11ZM10.5 9.4C10.02 9.67 9.85 10.29 10.13 10.76C10.41 11.24 11.02 11.41 11.5 11.13C11.97 10.85 12.14 10.24 11.86 9.76C11.59 9.29 10.97 9.12 10.5 9.4Z" fill="#FF0000" fill-opacity="1.000000" fill-rule="evenodd"/>
	</g>
</svg>
